HIERARCHY
ROOT Hips
{
	OFFSET 0.000000 0.000000 0.000000
	CHANNELS 6 Xposition Yposition Zposition Zrotation Yrotation Xrotation 
	JOINT LHipJoint
	{
		OFFSET 0.000000 0.000000 0.000000
		CHANNELS 3 Zrotation Yrotation Xrotation
		JOINT LeftUpLeg
		{
			OFFSET 8.178360 -10.767780 5.035740
			CHANNELS 3 Zrotation Yrotation Xrotation
			JOINT LeftLeg
			{
				OFFSET 14.688660 -40.356780 0.000000
				CHANNELS 3 Zrotation Yrotation Xrotation
				JOINT LeftFoot
				{
					OFFSET 15.373200 -42.237540 0.000000
					CHANNELS 3 Zrotation Yrotation Xrotation
					JOINT LeftToeBase
					{
						OFFSET 0.945840 -2.598660 13.935300
						CHANNELS 3 Zrotation Yrotation Xrotation
						End Site
						{
							OFFSET 0.000000 0.000000 0.000000
						}
					}
				}
			}
		}
	}
	JOINT RHipJoint
	{
		OFFSET 0.000000 0.000000 0.000000
		CHANNELS 3 Zrotation Yrotation Xrotation
		JOINT RightUpLeg
		{
			OFFSET -7.833120 -10.767780 5.035740
			CHANNELS 3 Zrotation Yrotation Xrotation
			JOINT RightLeg
			{
				OFFSET -15.255180 -41.913300 0.000000
				CHANNELS 3 Zrotation Yrotation Xrotation
				JOINT RightFoot
				{
					OFFSET -15.409560 -42.337380 0.000000
					CHANNELS 3 Zrotation Yrotation Xrotation
					JOINT RightToeBase
					{
						OFFSET -0.988380 -2.715540 14.178900
						CHANNELS 3 Zrotation Yrotation Xrotation
						End Site
						{
							OFFSET 0.000000 0.000000 0.000000
						}
					}
				}
			}
		}
	}
	JOINT LowerBack
	{
		OFFSET 0.000000 0.000000 0.000000
		CHANNELS 3 Zrotation Yrotation Xrotation
		JOINT Spine
		{
			OFFSET 0.169620 12.213540 -1.160280
			CHANNELS 3 Zrotation Yrotation Xrotation
			JOINT Spine1
			{
				OFFSET 0.340320 12.293100 -0.256500
				CHANNELS 3 Zrotation Yrotation Xrotation
				JOINT Neck
				{
					OFFSET 0.000000 0.000000 0.000000
					CHANNELS 3 Zrotation Yrotation Xrotation
					JOINT Neck1
					{
						OFFSET -0.325020 10.477440 1.032120
						CHANNELS 3 Zrotation Yrotation Xrotation
						JOINT Head
						{
							OFFSET 0.624420 10.568160 -0.743820
							CHANNELS 3 Zrotation Yrotation Xrotation
							End Site
							{
								OFFSET 0.000000 0.000000 0.000000
							}
						}
					}
				}
				JOINT LeftShoulder
				{
					OFFSET 0.000000 0.000000 0.000000
					CHANNELS 3 Zrotation Yrotation Xrotation
					JOINT LeftArm
					{
						OFFSET 20.174460 7.205340 -1.867260
						CHANNELS 3 Zrotation Yrotation Xrotation
						JOINT LeftForeArm
						{
							OFFSET 29.898000 -0.000000 -0.000000
							CHANNELS 3 Zrotation Yrotation Xrotation
							JOINT LeftHand
							{
								OFFSET 20.901360 -0.000000 -0.000000
								CHANNELS 3 Zrotation Yrotation Xrotation
								JOINT LeftFingerBase
								{
									OFFSET 0.000000 0.000000 0.000000
									CHANNELS 3 Zrotation Yrotation Xrotation
									JOINT LeftHandIndex1
									{
										OFFSET 4.291560 -0.000000 -0.000000
										CHANNELS 3 Zrotation Yrotation Xrotation
										End Site
										{
											OFFSET 0.000000 0.000000 0.000000
										}
									}
								}
								JOINT LThumb
								{
									OFFSET 0.000000 0.000000 0.000000
									CHANNELS 3 Zrotation Yrotation Xrotation
									End Site
									{
										OFFSET 0.000000 0.000000 0.000000
									}
								}
							}
						}
					}
				}
				JOINT RightShoulder
				{
					OFFSET 0.000000 0.000000 0.000000
					CHANNELS 3 Zrotation Yrotation Xrotation
					JOINT RightArm
					{
						OFFSET -18.819600 8.244300 -2.427900
						CHANNELS 3 Zrotation Yrotation Xrotation
						JOINT RightForeArm
						{
							OFFSET -31.451400 -0.000000 -0.000000
							CHANNELS 3 Zrotation Yrotation Xrotation
							JOINT RightHand
							{
								OFFSET -20.665020 -0.000000 -0.000000
								CHANNELS 3 Zrotation Yrotation Xrotation
								JOINT RightFingerBase
								{
									OFFSET 0.000000 0.000000 0.000000
									CHANNELS 3 Zrotation Yrotation Xrotation
									JOINT RightHandIndex1
									{
										OFFSET -3.735180 -0.000000 -0.000000
										CHANNELS 3 Zrotation Yrotation Xrotation
										End Site
										{
											OFFSET 0.000000 0.000000 0.000000
										}
									}
								}
								JOINT RThumb
								{
									OFFSET 0.000000 0.000000 0.000000
									CHANNELS 3 Zrotation Yrotation Xrotation
									End Site
									{
										OFFSET 0.000000 0.000000 0.000000
									}
								}
							}
						}
					}
				}
			}
		}
	}
}
MOTION
Frames:	6
Frame Time:	0.0333333
-41.256834 104.873292 -0.445992 -23.847076 64.784144 -15.087635 1.199222 0.675445 0.189358 -28.176120 -1.202961 -39.324727 1.927832 11.510936 32.453464 1.095645 -1.429586 -7.031474 -0.000000 0.002200 0.006000 -2.270962 -2.544025 1.312631 26.203545 14.823266 8.020471 -1.161013 -6.598448 22.329615 -0.744884 2.447548 -1.592936 -0.020900 0.932600 -2.563400 8.924628 -0.184313 7.971793 2.805620 0.564933 -1.757013 3.037672 0.742598 -4.426575 -5.495851 -2.098690 -12.577475 1.571395 -1.991075 10.712427 1.470200 -1.360400 8.320200 -6.905946 2.791413 -2.269735 -83.370126 0.907578 23.793669 12.265986 -22.737184 -3.344506 -0.511719 -3.025679 1.212755 12.217798 18.765541 4.788100 -7.125000 0.000000 0.000000 -16.295400 51.573300 -2.698000 5.944914 -2.089289 -2.411080 69.939422 -6.001964 20.488349 -16.754660 25.920839 -5.138161 1.681967 -0.205382 2.041971 -20.711941 10.608828 -4.354900 7.125000 0.000000 0.000000 3.291600 -18.495700 2.080800 
-39.016458 103.910154 3.257508 -29.938070 68.096103 -20.021178 1.007101 0.504272 0.013353 -29.900036 -1.076329 -40.796533 0.469610 9.313975 25.394283 0.253591 1.800225 -6.209685 0.019100 -0.893400 -2.455400 -2.140761 -2.614246 1.377938 27.967599 9.410876 10.474543 -0.487426 -4.844249 17.486785 -1.205855 5.062801 -0.903651 -0.127600 2.302700 -6.342900 9.747006 0.399345 7.958606 2.700436 1.433554 -1.857460 2.536012 1.155615 -4.529196 -6.484633 -2.898777 -13.747639 3.103212 -2.857250 11.528687 2.247200 -1.690400 9.127800 -6.997367 2.745615 -2.380945 -81.426612 0.135371 23.512584 12.211463 -22.657079 -3.158408 -0.994256 -3.419014 -0.291794 17.654152 21.853540 8.229400 -7.125000 0.000000 0.000000 -11.908600 56.085600 -3.271000 5.949477 -1.860697 -2.374026 68.994509 -5.152666 19.183972 -16.160262 25.236711 -4.875601 1.465209 -0.311616 2.861024 -18.293244 11.117646 -4.019700 7.125000 0.000000 0.000000 5.159300 -18.047600 3.320600 
-36.468120 103.029828 6.799662 -33.281278 68.855508 -21.942612 0.895919 0.422493 -0.173931 -26.226562 -6.780387 -39.833197 -0.361743 7.612484 20.122760 -1.156750 6.829395 -2.383386 0.007700 0.568300 1.561500 -2.082355 -2.683178 1.411113 29.819689 4.947868 12.951932 0.096199 -2.894906 12.156466 -1.002554 4.254191 -0.207956 -0.118800 2.222300 -6.120300 9.438174 1.693198 7.575540 2.556454 3.046014 -1.893797 2.491223 1.967297 -4.404178 -6.364357 -3.170152 -13.824222 3.548210 -3.288758 11.197118 2.380100 -1.826900 9.045900 -7.093820 2.631143 -2.375851 -79.373116 -1.299357 19.879639 11.609592 -21.784703 -2.833704 -1.203256 -3.408778 0.381679 18.898155 21.884427 8.900200 -7.125000 0.000000 0.000000 -10.442900 56.400900 -2.941800 6.114569 -1.713911 -2.295734 68.667507 -3.702495 16.711791 -14.948371 23.582063 -4.232765 1.326326 -0.429039 5.812032 -17.073348 10.781907 -3.642200 7.125000 0.000000 0.000000 6.095000 -18.428100 3.877700 
-33.407538 101.915160 9.905028 -34.956030 69.126589 -22.153275 0.928450 0.387403 -0.258476 -22.842886 -11.342700 -39.488396 -0.585016 7.048739 18.443809 -0.477840 4.335100 -1.019858 0.017800 -0.862500 -2.370500 -2.081214 -2.715429 1.413848 30.484960 0.400095 13.547619 0.277866 -2.025090 9.914307 -1.218882 5.763667 1.009321 -0.371700 3.915700 -10.839700 9.702124 2.746726 6.964870 2.296890 4.351807 -1.981326 1.696772 2.612568 -4.256540 -6.153149 -2.928968 -13.947579 3.692434 -3.036052 11.263608 2.477500 -1.681900 9.077200 -7.205115 2.576364 -2.352550 -78.613300 -2.257694 13.231493 11.142798 -20.990190 -2.535643 -1.486067 -3.431787 1.539621 20.733604 22.315014 10.048400 -7.125000 0.000000 0.000000 -8.482400 57.316500 -2.571300 6.189737 -1.664949 -2.265450 69.483292 -2.879290 14.009919 -14.187935 22.422306 -3.801800 1.360225 -0.408977 7.501525 -17.524079 9.554509 -3.313000 7.125000 0.000000 0.000000 5.739900 -19.741600 3.481100 
-29.499144 101.866698 13.294428 -31.513498 69.144114 -18.374969 1.223762 0.442439 -0.188530 -25.196544 -8.319164 -41.624518 -0.040927 8.488465 22.602076 0.684711 -0.256653 5.014459 0.009100 0.617100 1.695700 -2.090611 -2.718668 1.410391 29.636040 -0.411791 16.950584 0.521950 -0.808898 6.777422 -1.039242 5.449374 6.390137 -0.215900 2.991500 -8.255200 8.833015 4.751664 7.082800 1.344114 6.895664 -2.166087 -0.559663 3.829087 -4.739267 -5.367527 -4.177848 -13.984945 4.047402 -5.008228 11.910824 2.337400 -2.494700 9.574000 -7.386780 2.645934 -2.400366 -77.541446 -2.203461 7.286753 11.058423 -20.786494 -2.460627 -1.521570 -3.403357 3.903161 20.077914 22.806764 9.855900 -7.125000 0.000000 0.000000 -9.553500 57.688500 -2.985700 6.051407 -1.696198 -2.270192 73.624957 -3.944344 6.996984 -14.013513 22.005226 -3.642314 1.448287 -0.466125 8.461314 -18.602145 9.518047 -3.527300 7.125000 0.000000 0.000000 4.900100 -19.686700 2.973800 
-25.303644 102.451944 16.205328 -23.281903 71.993755 -10.360986 1.123186 0.624649 -0.033992 -26.891722 -12.692844 -39.032540 0.462681 9.249293 24.999955 -0.059459 2.843597 5.174671 0.166500 2.628600 7.246500 -2.158930 -2.604916 1.333090 26.598643 -0.286018 12.034231 -0.520068 -4.688767 17.702372 -1.424601 7.440383 13.249801 -0.488400 4.480900 -12.433600 6.123768 4.743393 7.322822 0.658887 6.600530 -2.199382 -1.249336 3.680355 -4.986572 -6.543270 -4.065329 -14.308478 4.401442 -4.552838 12.001480 2.856800 -2.338000 9.756400 -7.650544 2.737316 -2.396521 -77.498656 -1.426415 0.363044 10.695022 -20.182038 -2.267895 -1.456089 -3.417096 3.424833 19.565546 22.631817 9.525900 -7.125000 0.000000 0.000000 -10.058000 57.391600 -3.073300 5.954527 -1.663546 -2.240675 75.204786 -3.431921 7.861791 -13.518574 21.094491 -3.329467 1.607954 -0.395390 5.762845 -19.601029 9.108225 -3.579700 7.125000 0.000000 0.000000 4.080600 -20.067300 2.438900 
